<?xml version="1.0"?>
<svg xmlns="http://www.w3.org/2000/svg" xmlns:xlink="http://www.w3.org/1999/xlink" xmlns:svgjs="http://svgjs.com/svgjs" version="1.1" width="512" height="512" x="0" y="0" viewBox="0 0 512 512" style="enable-background:new 0 0 512 512" xml:space="preserve" class=""><g><path xmlns="http://www.w3.org/2000/svg" d="m416.667 241c-7.228 0-14.268.813-21.04 2.344l-43.527-108.831c-13.167-32.913-44.579-54.18-80.033-54.18-8.284 0-14.996 6.716-14.996 15s6.72 15 15.004 15c23.108 0 43.587 13.865 52.17 35.319l10.556 26.4-26.282 26.284c-27.507 27.512-44.768 62.53-49.866 100.434l-108.171-124.17h9.118c8.284 0 15-6.716 15-15s-6.716-15-15-15h-64.267c-8.284 0-15 6.716-15 15s6.716 15 15 15h15.285l31.062 35.499-17.658 35.315c-9.058-2.864-18.695-4.414-28.689-4.414-52.566 0-95.333 42.767-95.333 95.333s42.767 95.333 95.333 95.333c47.464 0 86.933-34.868 94.149-80.333h82.584c8.284 0 15-6.716 15-15v-13.784c0-38.902 15.153-75.482 42.665-103l17.19-17.19 20.863 52.158c-27.802 16.673-46.452 47.106-46.452 81.816 0 52.566 42.767 95.333 95.333 95.333s95.335-42.766 95.335-95.333-42.767-95.333-95.333-95.333zm-321.334 160.666c-36.024 0-65.333-29.308-65.333-65.333s29.309-65.333 65.333-65.333c5.168 0 10.191.622 15.015 1.761l-28.432 56.864c-2.325 4.649-2.076 10.172.657 14.594 2.733 4.423 7.561 7.114 12.76 7.114h63.575c-6.798 28.816-32.712 50.333-63.575 50.333zm63.576-80.333h-39.305l17.566-35.133c10.667 8.917 18.444 21.168 21.739 35.133zm30.574 0c-4.071-25.646-18.403-47.918-38.647-62.464l12.159-24.318 75.524 86.782zm227.184 80.333c-36.025 0-65.333-29.309-65.333-65.333 0-22.065 11.006-41.596 27.806-53.431l23.601 59.002c3.08 7.699 11.818 11.431 19.498 8.355 7.692-3.076 11.433-11.806 8.356-19.498l-23.616-59.039c3.162-.472 6.396-.723 9.688-.723 36.024.001 65.333 29.31 65.333 65.334s-29.309 65.333-65.333 65.333z" fill="#ffffff" data-original="#000000" style="" class=""/></g></svg>
